<svg width="63" height="78" viewBox="0 0 63 78" fill="none" xmlns="http://www.w3.org/2000/svg">
<path d="M2 66.0422H0H2ZM11.1397 56.9114V54.9114V56.9114ZM60.4938 58.9114C61.5984 58.9114 62.4938 58.016 62.4938 56.9114C62.4938 55.8069 61.5984 54.9114 60.4938 54.9114V58.9114ZM11.1397 2.12695V0.126953V2.12695ZM60.4938 2.12695H62.4938C62.4938 1.02238 61.5984 0.126953 60.4938 0.126953V2.12695ZM60.4938 75.1729V77.1729C61.5984 77.1729 62.4938 76.2775 62.4938 75.1729H60.4938ZM2 11.2577H0H2ZM4 66.0422C4 64.1516 4.75174 62.3381 6.09047 61.0007L3.26342 58.1709C1.17411 60.2581 0 63.0895 0 66.0422H4ZM6.09047 61.0007C7.42926 59.6632 9.24547 58.9114 11.1397 58.9114V54.9114C8.18587 54.9114 5.35266 56.0837 3.26342 58.1709L6.09047 61.0007ZM11.1397 58.9114H60.4938V54.9114H11.1397V58.9114ZM11.1397 4.12695H60.4938V0.126953H11.1397V4.12695ZM58.4938 2.12695V75.1729H62.4938V2.12695H58.4938ZM60.4938 73.1729H11.1397V77.1729H60.4938V73.1729ZM11.1397 73.1729C9.24547 73.1729 7.42926 72.4212 6.09047 71.0837L3.26342 73.9135C5.35266 76.0007 8.18587 77.1729 11.1397 77.1729V73.1729ZM6.09047 71.0837C4.75174 69.7463 4 67.9327 4 66.0422H0C0 68.9949 1.17411 71.8262 3.26342 73.9135L6.09047 71.0837ZM4 66.0422V11.2577H0V66.0422H4ZM4 11.2577C4 9.36714 4.75174 7.55362 6.09047 6.21619L3.26342 3.38638C1.17411 5.47365 0 8.30501 0 11.2577H4ZM6.09047 6.21619C7.42926 4.8787 9.24547 4.12695 11.1397 4.12695V0.126953C8.18587 0.126953 5.35266 1.29918 3.26342 3.38638L6.09047 6.21619Z" fill="url(#paint0_linear_703_6680)"/>
<defs>
<linearGradient id="paint0_linear_703_6680" x1="60.4938" y1="2.12695" x2="2" y2="2.12695" gradientUnits="userSpaceOnUse">
<stop stop-color="#3772FF"/>
<stop offset="1" stop-color="#66C3FF"/>
</linearGradient>
</defs>
</svg>
