<svg width="89" height="78" viewBox="0 0 89 78" fill="none" xmlns="http://www.w3.org/2000/svg">
<path d="M59.3647 75.2907C59.3647 76.3953 60.2601 77.2907 61.3647 77.2907C62.4692 77.2907 63.3647 76.3953 63.3647 75.2907H59.3647ZM53.0214 2.12695V0.126953V2.12695ZM36.3349 2.12695V0.126953V2.12695ZM27.9917 10.2563H25.9917H27.9917ZM25.9917 75.2907C25.9917 76.3953 26.8871 77.2907 27.9917 77.2907C29.0962 77.2907 29.9917 76.3953 29.9917 75.2907H25.9917ZM11.3052 20.3856H78.0511V16.3856H11.3052V20.3856ZM78.0511 20.3856C81.6037 20.3856 84.3944 23.1784 84.3944 26.5149H88.3944C88.3944 20.872 83.7143 16.3856 78.0511 16.3856V20.3856ZM84.3944 26.5149V67.1614H88.3944V26.5149H84.3944ZM84.3944 67.1614C84.3944 70.4979 81.6037 73.2907 78.0511 73.2907V77.2907C83.7143 77.2907 88.3944 72.8044 88.3944 67.1614H84.3944ZM78.0511 73.2907H11.3052V77.2907H78.0511V73.2907ZM11.3052 73.2907C7.75259 73.2907 4.96191 70.4979 4.96191 67.1614H0.961914C0.961914 72.8044 5.64204 77.2907 11.3052 77.2907V73.2907ZM4.96191 67.1614V26.5149H0.961914V67.1614H4.96191ZM4.96191 26.5149C4.96191 23.1784 7.75259 20.3856 11.3052 20.3856V16.3856C5.64204 16.3856 0.961914 20.872 0.961914 26.5149H4.96191ZM63.3647 75.2907V10.2563H59.3647V75.2907H63.3647ZM63.3647 10.2563C63.3647 7.55279 62.262 4.97089 60.3167 3.07551L57.5252 5.94043C58.7093 7.09414 59.3647 8.64768 59.3647 10.2563H63.3647ZM60.3167 3.07551C58.3732 1.18186 55.7481 0.126953 53.0214 0.126953V4.12695C54.7203 4.12695 56.3394 4.785 57.5252 5.94043L60.3167 3.07551ZM53.0214 0.126953H36.3349V4.12695H53.0214V0.126953ZM36.3349 0.126953C33.6082 0.126953 30.9831 1.18186 29.0396 3.07551L31.8311 5.94043C33.0169 4.785 34.6361 4.12695 36.3349 4.12695V0.126953ZM29.0396 3.07551C27.0944 4.97089 25.9917 7.55279 25.9917 10.2563H29.9917C29.9917 8.64768 30.647 7.09414 31.8311 5.94043L29.0396 3.07551ZM25.9917 10.2563V75.2907H29.9917V10.2563H25.9917Z" fill="url(#paint0_linear_703_6672)"/>
<defs>
<linearGradient id="paint0_linear_703_6672" x1="86.3944" y1="2.12695" x2="2.96191" y2="2.12695" gradientUnits="userSpaceOnUse">
<stop stop-color="#3772FF"/>
<stop offset="1" stop-color="#66C3FF"/>
</linearGradient>
</defs>
</svg>
