<svg width="1925" height="1028" viewBox="0 0 1925 1028" fill="none" xmlns="http://www.w3.org/2000/svg">
<g opacity="0.4">
<mask id="mask0_940_6009" style="mask-type:alpha" maskUnits="userSpaceOnUse" x="0" y="-583" width="2028" height="2595">
<path fill-rule="evenodd" clip-rule="evenodd" d="M0 -583H2028V1008.2H2027.94C2033.8 1186.64 1606.19 1664.1 1014 2011.8C421.809 1664.1 -5.79944 1186.64 0.059477 1008.2H0L0 -583Z" fill="url(#paint0_linear_940_6009)"/>
</mask>
<g mask="url(#mask0_940_6009)">
<path opacity="0.2" d="M4.37535e-05 -583H2028V1008.2H2027.94C2033.8 1186.64 1606.19 1664.1 1014 2011.8C421.81 1664.1 -5.79712 1186.64 0.0594293 1008.2H4.37535e-05L4.37535e-05 -583Z" fill="url(#paint1_linear_940_6009)"/>
<path opacity="0.6" fill-rule="evenodd" clip-rule="evenodd" d="M56.3329 616.472L-0.000401603 639.005L-0.000401603 862.603H-0.000444625L-0.000444625 2453.8H0.0588521C-5.79328 2632.25 421.813 3109.7 1014 3457.4C1606.19 3109.7 2033.79 2632.25 2027.94 2453.8H2028V864.338V862.603V639.005L1971.67 631.541C1915.33 623.513 1802.67 609.43 1690 631.541C1647.04 640.294 1604.08 654.31 1561.12 668.325C1491.41 691.066 1421.71 713.808 1352 714.069C1249.86 713.686 1147.73 665.042 1045.6 616.398C1035.06 611.382 1024.53 606.366 1014 601.402C901.333 548.872 788.666 503.805 676 488.736C563.333 474.23 450.666 488.313 338 518.874C225.333 548.872 112.666 593.938 56.3329 616.472Z" fill="url(#paint2_linear_940_6009)"/>
<path opacity="0.6" fill-rule="evenodd" clip-rule="evenodd" d="M56.3329 524.606L-0.000401597 457.006L-0.000401597 862.606H56.3329H338H676H1014H1352H1690H1971.67H2028V457.006H1971.67C1915.33 457.006 1802.67 457.006 1690 502.073C1650.25 517.973 1610.5 539.482 1570.75 560.992C1497.83 600.449 1424.92 639.906 1352 644.737C1264.3 650.985 1176.61 606.296 1088.91 561.607C1063.94 548.881 1038.97 536.155 1014 524.606C901.333 472.498 788.666 441.514 676 502.073C632.534 525.436 589.068 562.004 545.602 598.573C476.401 656.792 407.2 715.011 338 719.942C225.333 727.406 112.666 592.206 56.3329 524.606ZM2028 2453.81V862.606H-0.000444619L-0.000444619 2453.81H0.0589883C-5.79991 2632.25 421.808 3109.7 1014 3457.41C1606.19 3109.7 2033.8 2632.25 2027.94 2453.81H2028Z" fill="url(#paint3_linear_940_6009)"/>
<path opacity="0.6" fill-rule="evenodd" clip-rule="evenodd" d="M56.3329 817.001H-0.0004016L-0.0004016 862.068H56.3329H338H676H1014H1352H1690H1971.67H2028V726.868L1971.67 741.937C1970.28 742.293 1968.87 742.659 1967.42 743.034C1909.8 757.918 1799.9 786.31 1690 741.937C1646.49 724.695 1602.98 696.048 1559.46 667.4C1490.31 621.87 1421.15 576.339 1352 576.599C1285.4 576.349 1218.81 618.564 1152.21 660.78C1106.14 689.983 1060.07 719.187 1014 734.332C941.083 758.668 868.166 748.378 795.25 738.087C755.5 732.478 715.75 726.868 676 726.868C600.888 726.868 525.777 746.898 450.666 766.927C413.111 776.942 375.555 786.957 338 794.468C225.333 817.001 112.666 817.001 56.3329 817.001ZM2028 862.596H-0.000444622L-0.000444622 2453.8H0.0588481C-5.79308 2632.24 421.813 3109.69 1014 3457.39C1606.19 3109.69 2033.79 2632.24 2027.94 2453.8H2028V862.596Z" fill="url(#paint4_linear_940_6009)"/>
</g>
</g>
<defs>
<linearGradient id="paint0_linear_940_6009" x1="2028" y1="-583" x2="0" y2="-583" gradientUnits="userSpaceOnUse">
<stop stop-color="#3772FF"/>
<stop offset="1" stop-color="#66C3FF"/>
</linearGradient>
<linearGradient id="paint1_linear_940_6009" x1="2028" y1="-583" x2="0" y2="-583" gradientUnits="userSpaceOnUse">
<stop stop-color="#3772FF"/>
<stop offset="1" stop-color="#66C3FF"/>
</linearGradient>
<linearGradient id="paint2_linear_940_6009" x1="2028" y1="483" x2="-0.000488281" y2="483" gradientUnits="userSpaceOnUse">
<stop stop-color="#3772FF"/>
<stop offset="1" stop-color="#66C3FF"/>
</linearGradient>
<linearGradient id="paint3_linear_940_6009" x1="2028" y1="457.006" x2="-0.000488281" y2="457.006" gradientUnits="userSpaceOnUse">
<stop stop-color="#3772FF"/>
<stop offset="1" stop-color="#66C3FF"/>
</linearGradient>
<linearGradient id="paint4_linear_940_6009" x1="2028" y1="576.598" x2="-0.000488281" y2="576.598" gradientUnits="userSpaceOnUse">
<stop stop-color="#3772FF"/>
<stop offset="1" stop-color="#66C3FF"/>
</linearGradient>
</defs>
</svg>
