<svg width="78" height="78" viewBox="0 0 78 78" fill="none" xmlns="http://www.w3.org/2000/svg">
<path d="M0 62.9986C0 64.1032 0.89543 64.9986 2 64.9986C3.10457 64.9986 4 64.1032 4 62.9986H0ZM2 38.6499H0H2ZM38.523 2.12695V4.12695V2.12695ZM75.046 38.6499H77.046H75.046ZM73.046 62.9986C73.046 64.1032 73.9414 64.9986 75.046 64.9986C76.1505 64.9986 77.046 64.1032 77.046 62.9986H73.046ZM54.7554 67.0567H56.7554H54.7554ZM54.7554 54.8824H56.7554H54.7554ZM62.8716 46.7662V48.7662V46.7662ZM75.046 46.7662H77.046C77.046 45.6616 76.1505 44.7662 75.046 44.7662V46.7662ZM2 67.0567H0H2ZM22.2905 67.0567H24.2905H22.2905ZM22.2905 54.8824H24.2905H22.2905ZM2 46.7662V44.7662C0.89543 44.7662 0 45.6616 0 46.7662H2ZM4 62.9986V38.6499H0V62.9986H4ZM4 38.6499C4 29.4939 7.63723 20.7128 14.1115 14.2385L11.2831 11.4101C4.05866 18.6345 1.19209e-07 28.433 0 38.6499H4ZM14.1115 14.2385C20.5859 7.76419 29.3669 4.12695 38.523 4.12695V0.126953C28.3061 0.126953 18.5076 4.18561 11.2831 11.4101L14.1115 14.2385ZM38.523 4.12695C47.6791 4.12695 56.4601 7.76419 62.9344 14.2385L65.7629 11.4101C58.5384 4.18561 48.7399 0.126953 38.523 0.126953V4.12695ZM62.9344 14.2385C69.4087 20.7128 73.046 29.4939 73.046 38.6499H77.046C77.046 28.433 72.9873 18.6345 65.7629 11.4101L62.9344 14.2385ZM73.046 38.6499V62.9986H77.046V38.6499H73.046ZM73.046 67.0567C73.046 68.6788 72.4016 70.2345 71.2546 71.3815L74.083 74.21C75.9802 72.3128 77.046 69.7397 77.046 67.0567H73.046ZM71.2546 71.3815C70.1076 72.5285 68.5519 73.1729 66.9298 73.1729V77.1729C69.6127 77.1729 72.1858 76.1071 74.083 74.21L71.2546 71.3815ZM66.9298 73.1729H62.8716V77.1729H66.9298V73.1729ZM62.8716 73.1729C61.2495 73.1729 59.6938 72.5285 58.5468 71.3815L55.7184 74.21C57.6156 76.1071 60.1887 77.1729 62.8716 77.1729V73.1729ZM58.5468 71.3815C57.3998 70.2345 56.7554 68.6788 56.7554 67.0567H52.7554C52.7554 69.7397 53.8212 72.3128 55.7184 74.21L58.5468 71.3815ZM56.7554 67.0567V54.8824H52.7554V67.0567H56.7554ZM56.7554 54.8824C56.7554 53.2603 57.3998 51.7046 58.5468 50.5576L55.7184 47.7291C53.8212 49.6263 52.7554 52.1994 52.7554 54.8824H56.7554ZM58.5468 50.5576C59.6938 49.4105 61.2495 48.7662 62.8716 48.7662V44.7662C60.1887 44.7662 57.6156 45.832 55.7184 47.7291L58.5468 50.5576ZM62.8716 48.7662H75.046V44.7662H62.8716V48.7662ZM73.046 46.7662V67.0567H77.046V46.7662H73.046ZM0 67.0567C0 69.7397 1.06581 72.3128 2.96297 74.21L5.7914 71.3815C4.64439 70.2345 4 68.6788 4 67.0567H0ZM2.96297 74.21C4.86013 76.1071 7.43323 77.1729 10.1162 77.1729V73.1729C8.4941 73.1729 6.93841 72.5285 5.7914 71.3815L2.96297 74.21ZM10.1162 77.1729H14.1743V73.1729H10.1162V77.1729ZM14.1743 77.1729C16.8573 77.1729 19.4304 76.1071 21.3276 74.21L18.4991 71.3815C17.3521 72.5285 15.7965 73.1729 14.1743 73.1729V77.1729ZM21.3276 74.21C23.2247 72.3128 24.2905 69.7397 24.2905 67.0567H20.2905C20.2905 68.6788 19.6462 70.2345 18.4991 71.3815L21.3276 74.21ZM24.2905 67.0567V54.8824H20.2905V67.0567H24.2905ZM24.2905 54.8824C24.2905 52.1994 23.2247 49.6263 21.3276 47.7291L18.4991 50.5576C19.6462 51.7046 20.2905 53.2603 20.2905 54.8824H24.2905ZM21.3276 47.7291C19.4304 45.832 16.8573 44.7662 14.1743 44.7662V48.7662C15.7965 48.7662 17.3521 49.4105 18.4991 50.5576L21.3276 47.7291ZM14.1743 44.7662H2V48.7662H14.1743V44.7662ZM0 46.7662V67.0567H4V46.7662H0Z" fill="url(#paint0_linear_703_6676)"/>
<defs>
<linearGradient id="paint0_linear_703_6676" x1="75.046" y1="2.12695" x2="2" y2="2.12695" gradientUnits="userSpaceOnUse">
<stop stop-color="#3772FF"/>
<stop offset="1" stop-color="#66C3FF"/>
</linearGradient>
</defs>
</svg>
